<svg width="24" height="27" viewBox="0 0 24 27" fill="none" xmlns="http://www.w3.org/2000/svg">
<g clip-path="url(#clip0_4_2)">
<path fill-rule="evenodd" clip-rule="evenodd" d="M10.1895 6.72841C10.1895 5.87617 10.8874 5.18506 11.749 5.18506C12.6105 5.18506 13.3085 5.87617 13.3085 6.72841C13.3085 7.58045 12.6105 8.27075 11.749 8.27075C10.8874 8.27075 10.1895 7.58045 10.1895 6.72841ZM10.8766 6.38868C10.8766 6.69827 11.1137 6.9492 11.4063 6.9492C11.6993 6.9492 11.9365 6.69827 11.9365 6.38868C11.9365 6.07908 11.6993 5.82795 11.4063 5.82795C11.1137 5.82795 10.8766 6.07908 10.8766 6.38868Z" fill="#1A1919"/>
<path fill-rule="evenodd" clip-rule="evenodd" d="M11.7584 4.29541H11.7488C8.57906 4.29541 7.45441 6.71209 7.45441 6.71209C7.45441 6.71209 7.69509 7.50024 9.45601 8.66649C10.8881 9.61537 11.3562 10.2792 11.7534 11.4719C12.151 10.2792 12.6189 9.61537 14.0512 8.66649C15.8121 7.50024 16.0526 6.71209 16.0526 6.71209C16.0526 6.71209 14.928 4.29541 11.7584 4.29541ZM11.7568 8.50416H11.75C9.92355 8.50416 8.349 6.71209 8.349 6.71209C8.349 6.71209 9.48667 4.92002 11.75 4.92002H11.7568C14.0201 4.92002 15.158 6.71209 15.158 6.71209C15.158 6.71209 13.5833 8.50416 11.7568 8.50416Z" fill="#1A1919"/>
<path d="M5.23876 6.13834C6.98625 4.62512 9.26341 3.7098 11.7534 3.7098C14.246 3.7098 16.5239 4.62613 18.2718 6.14155C18.5183 5.91634 18.7378 5.68992 18.9211 5.4643C18.28 4.6655 18.046 3.7329 18.0568 3.25053C17.54 3.66661 16.5261 3.71523 15.4053 3.37449C15.2985 3.33632 15.1909 3.29975 15.0822 3.2652C13.8989 2.83305 12.6414 1.97881 11.75 0.675537C10.8458 1.99769 9.56461 2.85776 8.36681 3.28368C8.3093 3.30257 8.25218 3.32205 8.19527 3.34154C7.03475 3.71643 5.97543 3.67926 5.44357 3.25053C5.45379 3.73069 5.22112 4.65827 4.58545 5.45526C4.76902 5.68208 4.99086 5.91071 5.23876 6.13834Z" fill="#1A1919"/>
<path d="M21.7255 13.7072C21.7255 13.6571 21.7247 13.6075 21.7235 13.5575C22.0315 13.2441 22.3121 12.9025 22.5532 12.5325C22.6273 13.0846 22.6658 13.6491 22.6658 14.2237C22.6658 22.6758 11.7534 26.054 11.7534 26.054C11.7534 26.054 0.840942 22.9176 0.840942 14.2237C0.840942 13.6463 0.880421 13.0785 0.955171 12.5234C1.19585 12.8945 1.47621 13.2364 1.78363 13.5503L1.78281 13.5964C1.78212 13.6331 1.78142 13.6701 1.78142 13.7072C1.78142 19.2284 6.24615 23.704 11.7534 23.704C17.261 23.704 21.7255 19.2284 21.7255 13.7072Z" fill="#1A1919"/>
<path d="M8.4239 9.07742C6.42317 7.82785 3.5982 6.0635 3.48867 4.3457C-4.4963 12.6698 7.0512 15.9246 7.0512 15.9246C7.0512 15.9246 4.51031 16.4725 4.51031 18.235C4.51031 21.2771 8.90811 22.5913 8.90811 22.5913C8.90811 22.5913 11.4628 21.7651 11.4628 15.2042C11.4628 12.3178 11.0083 10.7337 9.23316 9.58791C8.98807 9.42977 8.71468 9.25903 8.4239 9.07742Z" fill="#1A1919"/>
<path d="M16.4628 15.9246C16.4628 15.9246 28.0107 12.6698 20.0255 4.3457C19.9156 6.06372 17.0902 7.82832 15.0893 9.07791C14.7988 9.25934 14.5257 9.42991 14.2808 9.58791C12.5055 10.7337 12.0511 12.3178 12.0511 15.2042C12.0511 21.7651 14.6059 22.5913 14.6059 22.5913C14.6059 22.5913 19.0035 21.2771 19.0035 18.235C19.0035 16.4725 16.4628 15.9246 16.4628 15.9246Z" fill="#1A1919"/>
<path fill-rule="evenodd" clip-rule="evenodd" d="M11.75 0C11.5277 0 11.3201 0.109493 11.1945 0.29312C10.1989 1.74867 8.85819 2.39157 8.14757 2.64511C8.09206 2.66319 8.03314 2.68268 7.98384 2.70036C7.54456 2.8422 7.10007 2.91754 6.70067 2.91754C6.31711 2.91754 6.02071 2.84883 5.8658 2.72427C5.74797 2.62864 5.59727 2.576 5.44176 2.576C5.33895 2.576 5.23675 2.59951 5.14637 2.64411C4.9121 2.75963 4.7644 3.00332 4.76981 3.2647C4.77663 3.59418 4.62252 4.18143 4.27061 4.73472C4.20669 4.58284 4.17001 4.43798 4.16119 4.30257C4.14436 4.03577 3.97141 3.80353 3.72071 3.71131C3.64636 3.68419 3.56841 3.67033 3.48905 3.67033C3.30648 3.67033 3.12913 3.74587 3.00288 3.87766C0.527927 6.45808 -0.424378 8.8832 0.172817 11.0857C0.256384 11.3947 0.37422 11.7041 0.522917 12.0067C0.394861 12.1139 0.310091 12.2658 0.287246 12.4324C0.207486 13.022 0.167005 13.6248 0.167005 14.2236C0.167005 18.0117 2.15518 21.3775 5.91631 23.9567C8.69667 25.8639 11.4516 26.6699 11.5676 26.7032C11.6293 26.7207 11.6919 26.7296 11.7542 26.7296C11.8215 26.7296 11.8881 26.7195 11.9522 26.6994C12.0668 26.6643 14.7957 25.8136 17.5945 23.8633C21.353 21.2437 23.3398 17.9105 23.3398 14.2236C23.3398 13.6306 23.2997 13.0313 23.2207 12.4424C23.1987 12.2761 23.1141 12.124 22.9862 12.0163C23.137 11.7113 23.2564 11.3987 23.3416 11.0859C23.9386 8.8834 22.9862 6.45828 20.5113 3.87746C20.3852 3.74627 20.2071 3.67093 20.0225 3.67093C19.9436 3.67093 19.8666 3.68459 19.7937 3.71131C19.5428 3.80373 19.3698 4.03597 19.353 4.30278C19.3438 4.44261 19.3049 4.59208 19.2372 4.74898C18.8794 4.19188 18.7229 3.5986 18.7301 3.2651C18.7357 3.00353 18.5881 2.75983 18.3542 2.64411C18.264 2.59951 18.1618 2.576 18.0588 2.576C17.9031 2.576 17.7522 2.62864 17.6339 2.72407C17.479 2.84943 17.1806 2.91834 16.7937 2.91834C16.4263 2.91834 16.0177 2.85365 15.6119 2.7311C15.5097 2.69453 15.4057 2.65938 15.2975 2.62502C14.6027 2.36987 13.2856 1.72617 12.3057 0.293321C12.1806 0.109694 11.9728 0 11.75 0ZM11.75 0.0739329C11.9484 0.0739329 12.1333 0.171774 12.245 0.335109C13.2365 1.78524 14.571 2.43697 15.2752 2.69534C15.3816 2.72949 15.486 2.76465 15.5907 2.80202C16.0033 2.92658 16.4191 2.99227 16.7937 2.99227C17.1975 2.99227 17.5123 2.91754 17.6802 2.78173C17.7854 2.69674 17.9199 2.64993 18.0588 2.64993C18.1506 2.64993 18.2414 2.67103 18.3215 2.71061C18.5299 2.81347 18.6612 3.03045 18.6564 3.2635C18.6482 3.63959 18.8309 4.29896 19.2484 4.89846C19.3548 4.69012 19.4145 4.49183 19.4267 4.3076C19.4416 4.06993 19.5957 3.863 19.8191 3.78083C19.8838 3.75712 19.9524 3.74506 20.0225 3.74506C20.187 3.74506 20.346 3.81197 20.4582 3.92889C22.9139 6.48942 23.86 8.89084 23.2702 11.0664C23.1812 11.3935 23.0544 11.72 22.8927 12.038C23.0315 12.1336 23.1251 12.2839 23.1476 12.4523C23.2261 13.0379 23.266 13.6338 23.266 14.2236C23.266 17.8851 21.2903 21.1975 17.5524 23.8026C14.763 25.7461 12.0446 26.5938 11.9303 26.6289C11.8732 26.6466 11.8141 26.6554 11.7542 26.6554C11.6987 26.6554 11.643 26.6478 11.5878 26.6321C11.4724 26.599 8.72873 25.7962 5.95799 23.8956C2.21791 21.3307 0.240953 17.9862 0.240953 14.2236C0.240953 13.628 0.281234 13.0287 0.360392 12.4424C0.383639 12.2739 0.477426 12.1236 0.616504 12.0284C0.456785 11.7129 0.331534 11.3895 0.243959 11.0664C-0.345821 8.89064 0.600272 6.48942 3.05618 3.92889C3.16861 3.81156 3.32632 3.74426 3.48905 3.74426C3.55979 3.74426 3.62913 3.75652 3.69526 3.78083C3.91851 3.863 4.07262 4.06973 4.08745 4.3074C4.09927 4.48761 4.15679 4.68188 4.25919 4.8858C4.67081 4.28952 4.85138 3.63537 4.84376 3.26309C4.83875 3.03045 4.97021 2.81347 5.17883 2.71041C5.25919 2.67083 5.35017 2.64993 5.44176 2.64993C5.58043 2.64993 5.7147 2.69694 5.81971 2.78193C5.98745 2.91714 6.30047 2.99147 6.70067 2.99147C7.10769 2.99147 7.56079 2.91473 8.00869 2.77007C8.05739 2.7526 8.1155 2.73331 8.17242 2.71482C8.89126 2.45827 10.248 1.80774 11.2554 0.334908C11.3672 0.171573 11.5522 0.0739329 11.75 0.0739329Z" fill="#1A1919"/>
</g>
<defs>
<clipPath id="clip0_4_2">
<rect width="24" height="27" fill="white"/>
</clipPath>
</defs>
</svg>
